<svg width="20" height="20" viewBox="0 0 20 20" fill="none" xmlns="http://www.w3.org/2000/svg">
<path d="M9.45202 3.26477C9.1413 3.26477 8.88953 3.51656 8.88953 3.82726V9.45218C8.88953 9.76289 9.14131 10.0147 9.45202 10.0147C9.76272 10.0147 10.0145 9.76288 10.0145 9.45218V3.82726C10.0145 3.51655 9.76272 3.26477 9.45202 3.26477Z" fill="#1A162E"/>
<path d="M7.20214 13.0146C6.89143 13.0146 6.63965 13.2664 6.63965 13.5771V16.9522C6.63965 17.2629 6.89144 17.5146 7.20214 17.5146C7.51284 17.5146 7.76463 17.2629 7.76463 16.9522V13.5771C7.76463 13.2664 7.51284 13.0146 7.20214 13.0146Z" fill="#1A162E"/>
<path d="M18.8271 18.2647H14.4262C14.718 17.8438 14.8897 17.3334 14.8897 16.7835V13.371C14.8897 12.0547 13.9088 10.964 12.6397 10.7897V3.26463C12.6397 1.81726 11.4621 0.639648 10.0147 0.639648C8.5674 0.639648 7.38975 1.81729 7.38975 3.26463V10.7897C6.12063 10.9639 5.13975 12.0547 5.13975 13.371V16.7835C5.13975 17.3334 5.31145 17.8438 5.6034 18.2647H1.20214C0.891426 18.2647 0.639648 18.5165 0.639648 18.8272C0.639648 19.1379 0.891436 19.3897 1.20214 19.3897H18.8271C19.1378 19.3897 19.3895 19.1379 19.3895 18.8272C19.3895 18.5165 19.1378 18.2647 18.8271 18.2647H18.8271ZM8.51463 3.26473C8.51463 2.43759 9.18749 1.76473 10.0146 1.76473C10.8418 1.76473 11.5146 2.43759 11.5146 3.26473V10.7647H8.51463V3.26473ZM7.74588 18.2647C6.92919 18.2647 6.26463 17.6002 6.26463 16.7835V13.371C6.26463 12.5543 6.92919 11.8898 7.74588 11.8898H12.2832C13.0999 11.8898 13.7645 12.5543 13.7645 13.371V16.7835C13.7645 17.6002 13.0999 18.2647 12.2832 18.2647H7.74588Z" fill="#1A162E"/>
</svg>
